<svg width="24" height="24" viewBox="0 0 24 24" fill="none" xmlns="http://www.w3.org/2000/svg">
    <g clip-path="url(#clip0_4_4631)">
        <rect width="24" height="24" rx="12" fill="#F93939"/>
        <path d="M30.4 0H3.2C1.43269 0 0 1.43269 0 3.2V20.8C0 22.5673 1.43269 24 3.2 24H30.4C32.1673 24 33.6 22.5673 33.6 20.8V3.2C33.6 1.43269 32.1673 0 30.4 0Z" fill="#F93939"/>
        <path fill-rule="evenodd" clip-rule="evenodd" d="M0 6.40002H33.6V17.6H0V6.40002Z" fill="#FFDA2C"/>
        <path fill-rule="evenodd" clip-rule="evenodd" d="M14.4 9.95516V13.9872C14.4 15.1072 13.3248 16.0032 12 16.0032H8.80002C7.47842 16 6.40002 15.0992 6.40002 13.984V9.95196C6.40002 9.03676 7.11682 8.27196 8.10242 8.02396C8.40002 7.19196 9.31522 7.93756 10.4 7.93756C11.4912 7.93756 12.4 7.19676 12.6976 8.02556C13.68 8.27996 14.4 9.04636 14.4 9.95516Z" fill="#D4AF2C"/>
        <path fill-rule="evenodd" clip-rule="evenodd" d="M14.4 11.2H16V16H14.4V11.2ZM4.79999 11.2H6.39999V16H4.79999V11.2Z" fill="#CBCBCB"/>
        <path fill-rule="evenodd" clip-rule="evenodd" d="M14.4 14.4H16V16H14.4V14.4ZM4.79999 14.4H6.39999V16H4.79999V14.4Z" fill="#1A47B8"/>
        <path fill-rule="evenodd" clip-rule="evenodd" d="M14.4 9.59998H16V11.2H14.4V9.59998ZM4.79999 9.59998H6.39999V11.2H4.79999V9.59998Z" fill="#D4AF2C"/>
        <path fill-rule="evenodd" clip-rule="evenodd" d="M8 9.59998H9.6V12H8V9.59998ZM11.2 12.8H12.8V15.2H11.2V12.8Z" fill="#AF010D"/>
        <path fill-rule="evenodd" clip-rule="evenodd" d="M11.2 9.59998H12.8V12H11.2V9.59998Z" fill="#AE6A3E"/>
        <path fill-rule="evenodd" clip-rule="evenodd" d="M8 12.8H9.6V15.2H8V12.8Z" fill="#FFDA2C"/>
        <path fill-rule="evenodd" clip-rule="evenodd" d="M9.6 9.6L8 8H12.8L11.2 9.6H9.6Z" fill="#AF010D"/>
        <path fill-rule="evenodd" clip-rule="evenodd" d="M9.59998 6.40002H11.2V8.00002H9.59998V6.40002Z" fill="#D4AF2C"/>
    </g>
    <defs>
        <clipPath id="clip0_4_4631">
            <rect width="24" height="24" rx="12" fill="white"/>
        </clipPath>
    </defs>
</svg>