<svg xmlns="http://www.w3.org/2000/svg" version="1.1" xmlns:xlink="http://www.w3.org/1999/xlink" xmlns:svgjs="http://svgjs.com/svgjs" width="1000" height="1000"><rect width="1000" height="1000" rx="500" ry="500" fill="#555555"></rect><g transform="matrix(8,0,0,8,99.99998664855957,100)"><svg xmlns="http://www.w3.org/2000/svg" version="1.1" xmlns:xlink="http://www.w3.org/1999/xlink" xmlns:svgjs="http://svgjs.com/svgjs" width="100" height="100"><svg xmlns="http://www.w3.org/2000/svg" width="100" height="100" viewBox="6 11 12 5" fill="none" stroke-width="1" stroke-linecap="round" stroke-linejoin="round">
    <defs>
        <linearGradient id="grad1" x1="0%" y1="0%" x2="100%" y2="0%" gradientUnits="userSpaceOnUse">
            <stop offset="0%" style="stop-color:rgb(131,58,180);stop-opacity:1"></stop>
            <stop offset="50%" style="stop-color:rgb(253,29,29);stop-opacity:1"></stop>
            <stop offset="100%" style="stop-color:rgb(252,176,69);stop-opacity:1"></stop>
        </linearGradient>
    </defs>

    <!-- Left Hand -->
    <path d="M10 16.5a3 3 0 1 0 0-6 3 3 0 0 0 0 6z" stroke="url(#grad1)"></path>
    <!-- Right Hand -->
    <path d="M14 16.5a3 3 0 1 0 0-6 3 3 0 0 0 0 6z" stroke="url(#grad1)"></path>
    <!-- Connection -->
    <path d="M10 16.1a2 3 0 0 1 4 0" stroke="url(#grad1)"></path>
</svg></svg></g></svg>