<svg version="1.1" id="Layer_1" xmlns="http://www.w3.org/2000/svg" xmlns:xlink="http://www.w3.org/1999/xlink" x="0px" y="0px"
	 width="100%" viewBox="0 0 1024 1024" enable-background="new 0 0 1024 1024" xml:space="preserve">
<path fill="#ffffff" opacity="1.000000" stroke="none" 
	d="
M682.540771,866.610474 
	C641.548157,888.801941 598.442383,903.254028 552.527039,909.522766 
	C527.185547,912.982544 501.781982,914.531067 476.318481,913.073242 
	C421.299133,909.923340 369.110168,896.153381 319.968536,870.752502 
	C267.253326,843.504517 223.038559,806.539062 187.358810,759.056274 
	C155.586197,716.773193 133.199661,670.084167 120.203529,618.976685 
	C113.764748,593.656128 110.657936,567.767395 109.400612,541.571472 
	C108.596352,524.815125 110.247971,508.373352 111.656967,491.821808 
	C112.005821,487.723694 113.435303,485.515839 118.104805,485.626038 
	C128.765182,485.877594 139.436325,485.634796 150.102509,485.695679 
	C155.160568,485.724548 155.570938,486.560150 153.096268,490.760468 
	C149.544693,496.788727 146.044525,502.847229 142.507217,508.883942 
	C138.913055,515.017700 139.322678,517.675659 144.942978,523.351318 
	C147.350937,521.989319 148.397446,519.493896 149.724960,517.263062 
	C171.877213,480.038177 193.877518,442.721863 216.218079,405.610382 
	C227.035538,387.640686 243.490891,383.075867 262.537415,392.019531 
	C264.357208,392.874023 266.038696,394.187805 267.691986,391.730835 
	C272.692810,384.298950 278.845978,378.124146 287.349457,374.657684 
	C283.697906,369.426117 279.086731,368.480286 273.307068,371.482544 
	C272.426208,371.940125 271.284454,372.363831 270.846222,373.134613 
	C264.873505,383.639526 256.651184,378.960663 248.749207,376.507141 
	C250.095566,363.783447 265.103485,351.507660 278.656647,352.160706 
	C292.626099,352.833801 302.778992,359.025757 307.607117,372.647949 
	C308.536346,375.269684 309.809875,377.136353 313.550415,375.946136 
	C314.077820,369.293396 312.058289,363.238037 308.377502,357.798035 
	C293.497314,335.805939 263.191528,337.371643 247.171906,357.225616 
	C243.159607,362.198273 240.036224,367.716003 238.476547,373.955048 
	C237.803833,376.646118 236.534180,378.228455 233.806793,379.126038 
	C221.908447,383.041870 212.888199,390.482849 206.729858,401.476074 
	C202.334351,409.322510 197.581497,416.967987 193.100845,424.767883 
	C191.440201,427.658722 189.289642,428.964905 185.845795,428.951080 
	C167.180267,428.876190 148.513443,428.924835 129.848389,429.085083 
	C125.487297,429.122498 124.425072,427.799438 125.559502,423.426483 
	C128.831299,410.814484 133.674927,398.766449 138.024475,386.535858 
	C139.198257,383.235260 141.126999,381.734009 144.699310,381.944641 
	C152.797318,382.422028 160.953888,380.928864 169.011597,383.497559 
	C173.344971,384.878998 177.858704,381.055206 178.218658,376.609650 
	C178.588150,372.046295 174.737762,367.843353 169.700272,368.269836 
	C164.069031,368.746521 158.473938,369.583923 152.802765,369.299774 
	C151.028900,369.210876 149.121460,369.747375 147.545761,368.392090 
	C146.831726,366.362427 148.084976,364.806885 148.878693,363.239655 
	C151.286591,358.485077 154.360947,354.001831 156.228561,349.055298 
	C159.058090,341.560974 164.101440,339.305511 171.706253,339.910767 
	C180.492966,340.610046 189.352707,339.637939 198.174393,340.531219 
	C202.152878,340.934052 206.404861,337.478943 206.537964,334.232483 
	C206.697601,330.338074 203.242188,327.003204 198.644211,326.992126 
	C191.146057,326.974060 183.647568,327.200317 176.148743,327.263428 
	C174.344467,327.278625 172.473862,327.627563 169.859695,326.203644 
	C173.205475,320.183777 177.101334,314.573792 181.497635,309.305054 
	C181.988419,308.716888 183.367416,308.722076 184.339081,308.704346 
	C214.823212,308.148163 245.307510,307.444305 275.794861,308.552521 
	C277.813110,308.625885 279.753326,308.882050 281.623413,309.721191 
	C285.154419,311.305573 288.170013,310.218689 290.632721,307.551910 
	C292.856659,305.143738 293.403351,302.286987 292.006042,299.219635 
	C290.472198,295.852600 287.855927,293.876404 284.123199,294.217072 
	C256.190369,296.766510 228.198822,294.660767 200.244080,295.347015 
	C197.958481,295.403137 195.590881,295.775513 192.133759,294.098358 
	C224.145447,252.826370 262.616241,219.833771 307.664978,194.257294 
	C352.655029,168.714172 400.633850,152.080872 452.017700,145.763687 
	C616.356323,125.559761 750.078003,220.054382 801.369934,294.355194 
	C799.910828,295.986084 797.960266,295.301025 796.249512,295.304626 
	C770.749756,295.358429 745.249756,295.351440 719.749878,295.356934 
	C717.419006,295.357422 715.133057,295.258026 712.833557,294.609772 
	C708.737061,293.454987 705.201111,294.479553 702.807556,298.191925 
	C700.996521,301.000702 700.962769,303.820862 703.240173,306.481903 
	C706.114197,309.840240 709.302429,311.162140 713.833130,309.442047 
	C720.037659,307.086517 726.750183,308.193634 733.103516,308.325592 
	C757.934753,308.841278 782.761475,308.455811 807.587708,308.507385 
	C811.640259,308.515808 814.115234,309.773193 816.138428,313.072998 
	C818.788147,317.395020 822.402527,321.160522 824.064941,326.989288 
	C816.160156,327.460236 808.760376,327.370789 801.352600,326.882477 
	C799.693970,326.773132 798.039856,326.440247 796.385376,326.451813 
	C791.554321,326.485535 788.461548,329.234467 788.327515,333.461914 
	C788.201965,337.421967 791.485168,340.581421 796.263306,340.624084 
	C807.247498,340.722198 818.228027,339.390839 829.221191,340.573334 
	C831.196655,340.785767 833.265381,340.434509 834.436340,342.656555 
	C838.548950,350.460388 843.441101,357.858032 846.673340,366.117004 
	C846.953186,366.831940 846.856934,367.694031 846.998779,369.128693 
	C840.465576,369.252533 834.222534,369.906158 827.983093,368.651031 
	C825.159119,368.082947 822.326965,367.554901 819.734924,369.187622 
	C816.236816,371.391113 814.757568,374.490204 816.313721,378.573792 
	C817.812317,382.506470 821.867310,384.937408 826.009277,383.513794 
	C834.028625,380.757507 842.204651,382.469025 850.288635,381.939148 
	C852.993591,381.761871 854.524780,383.171448 855.549683,385.627167 
	C860.752686,398.093903 864.997437,410.877136 868.669006,423.870941 
	C869.789124,427.835083 868.268188,429.007904 864.585388,428.998810 
	C845.585632,428.951874 826.585388,428.914001 807.586243,429.029572 
	C804.345154,429.049255 802.794861,427.324249 801.386536,424.904724 
	C796.692749,416.840759 791.925476,408.819611 787.234619,400.753998 
	C781.211121,390.397064 772.637817,383.102844 761.282410,379.227783 
	C758.504944,378.279968 757.103149,376.743378 756.210388,373.819031 
	C751.390686,358.030548 741.351257,347.192139 725.081848,343.001678 
	C704.732361,337.760345 684.193726,350.941498 681.241272,370.956268 
	C680.989624,372.662415 679.414551,375.140991 682.618713,375.867004 
	C685.334045,376.482269 686.447815,374.671234 687.220520,372.408020 
	C692.824036,355.995972 711.473145,347.963470 727.657166,354.701385 
	C736.112854,358.221771 741.619507,364.697632 745.471130,372.772675 
	C746.784912,375.527161 746.290100,377.306580 742.842529,377.378265 
	C742.511108,377.385132 742.160400,377.397858 741.853394,377.506256 
	C735.199646,379.855865 729.773743,380.258209 724.182495,373.723969 
	C718.829895,367.468658 711.547729,368.492188 706.765442,374.242950 
	C709.614685,375.953491 712.477112,377.556183 715.218018,379.344910 
	C719.177734,381.929047 722.476196,385.220978 724.841492,389.340118 
	C726.831482,392.805542 729.124207,393.655090 732.973572,391.717651 
	C744.596863,385.867432 756.080322,386.159973 767.021606,393.628845 
	C772.519226,397.381683 776.233887,402.720428 779.591003,408.331848 
	C801.742310,445.358398 823.891113,482.386444 846.034485,519.417786 
	C846.885498,520.841003 847.699280,522.278442 849.161377,523.139709 
	C855.000610,517.944092 855.521484,515.384705 851.981018,509.011322 
	C847.961426,501.775391 843.878174,494.574829 839.934998,487.558807 
	C841.593201,485.205414 843.586304,485.741882 845.320312,485.730103 
	C855.653198,485.659882 865.987793,485.765045 876.319336,485.627075 
	C880.063293,485.577057 881.903992,486.544586 882.485413,490.780884 
	C885.713745,514.302246 885.819031,537.761414 883.549316,561.414612 
	C876.787781,631.878967 852.510254,695.606689 811.257690,752.984558 
	C780.829285,795.307251 743.888550,830.659668 699.035767,857.489380 
	C693.752258,860.649902 688.258240,863.458557 682.540771,866.610474 
M763.446472,706.940918 
	C773.127747,699.072815 779.813843,689.026245 784.410400,677.568726 
	C799.848816,639.085999 814.312012,600.177673 831.008240,562.250916 
	C837.686768,547.080200 835.445068,535.755432 827.267273,522.716003 
	C810.369873,495.772949 794.592224,468.129059 778.240662,440.841370 
	C772.421875,431.130798 767.444885,420.866547 760.574097,411.843872 
	C752.908630,401.777679 739.312195,403.465118 733.758423,414.845520 
	C729.040039,424.514404 731.424683,433.404510 736.101562,442.461090 
	C748.707275,466.871399 761.226135,491.336823 773.121643,516.096375 
	C776.148438,522.396484 779.573059,525.202820 786.326965,524.068909 
	C787.608582,523.853638 789.004028,524.026733 790.303528,524.261047 
	C794.201843,524.963989 796.154602,527.830566 796.078491,531.337280 
	C795.997375,535.074158 793.518921,537.320251 789.480896,537.306213 
	C786.315308,537.295227 783.148438,537.399780 779.984314,537.338928 
	C777.503662,537.291321 775.995483,538.366028 774.973633,540.632446 
	C766.898010,558.543213 758.864685,576.474731 750.560486,594.279602 
	C748.360291,598.997009 750.193787,600.987915 754.332581,602.416077 
	C759.050293,604.044067 763.835266,605.545776 768.389954,607.557495 
	C772.706665,609.463928 774.449219,613.799011 773.175659,617.922729 
	C771.943787,621.911560 767.388367,624.380737 762.786377,623.606262 
	C757.460815,622.710083 752.744873,620.111084 747.762695,618.262512 
	C740.430481,615.541870 740.314026,615.435913 737.425842,622.859924 
	C730.105103,641.677795 716.217224,653.498474 697.718689,660.441284 
	C692.222046,662.504211 687.091858,660.569275 685.018433,655.897461 
	C682.855835,651.024780 684.925232,645.625977 690.181213,642.925049 
	C692.691711,641.634888 695.379822,640.691345 697.983459,639.581299 
	C707.357849,635.584534 714.709412,629.485779 718.997437,619.968384 
	C724.058960,608.734009 729.326538,597.592529 734.494812,586.406128 
	C741.478821,571.289429 748.682068,556.268127 755.343201,541.010315 
	C759.118713,532.362244 756.024536,523.674622 748.386780,518.763367 
	C737.904236,512.022888 725.546570,515.135376 719.016968,526.776978 
	C704.842163,552.049255 690.828186,577.415222 677.078430,602.920837 
	C670.643860,614.856873 661.407288,623.360901 649.295532,629.182617 
	C635.191772,635.961975 620.940308,642.469849 607.421692,650.407166 
	C584.850830,663.659607 563.841003,678.901245 548.262939,700.305969 
	C531.256104,723.673889 525.196228,749.032104 536.251160,776.998047 
	C543.131470,794.403198 557.890869,801.665894 575.666077,795.724670 
	C583.707520,793.036865 591.595276,789.843201 599.419739,786.561890 
	C617.231262,779.092529 634.963501,771.434143 652.718506,763.830566 
	C654.551331,763.045593 656.709045,762.290100 656.572449,759.803650 
	C656.370667,756.132935 658.725220,754.993713 661.555725,753.975464 
	C682.876831,746.305908 703.568848,737.099426 724.294006,727.996887 
	C737.671143,722.121582 751.654480,717.288452 763.446472,706.940918 
M251.477325,616.324890 
	C245.074799,618.665771 238.735992,621.205078 232.250565,623.287781 
	C226.568665,625.112366 222.180237,622.989136 220.465668,618.159851 
	C218.875748,613.681641 221.236832,609.766968 226.537201,607.356201 
	C232.694946,604.555603 239.545319,603.371826 245.162125,599.717163 
	C245.361313,597.575012 244.379028,596.160278 243.704041,594.669373 
	C236.216522,578.131836 228.395142,561.735229 221.370255,545.003967 
	C218.830872,538.955872 215.599792,536.203491 209.147491,537.271423 
	C207.527374,537.539612 205.821472,537.314270 204.155807,537.277771 
	C200.237335,537.191895 198.221527,534.677429 198.138458,531.256775 
	C198.055557,527.841675 200.041199,525.170288 203.799118,524.782837 
	C206.440094,524.510620 209.137329,524.493896 211.788055,524.675476 
	C215.644821,524.939758 217.856964,523.343689 219.499130,519.810974 
	C223.639114,510.904724 228.066574,502.128479 232.527206,493.375763 
	C241.906219,474.972198 251.395752,456.624969 260.808960,438.238770 
	C265.441345,429.190582 264.420532,420.438965 258.730530,412.314636 
	C252.217804,403.015564 240.167435,402.898804 233.291031,411.876465 
	C231.777420,413.852570 230.514023,416.030670 229.237869,418.176697 
	C216.724579,439.219543 204.234528,460.276184 191.734848,481.327118 
	C180.766174,499.799683 169.445114,518.068909 159.565445,537.169312 
	C157.851440,540.482971 156.604202,543.626770 158.178833,547.582581 
	C175.237076,590.436279 192.151016,633.347290 209.133957,676.230957 
	C217.006363,696.109619 230.846283,710.220398 250.328934,718.982605 
	C276.454468,730.732300 302.984039,741.522766 329.382294,752.627075 
	C333.241638,754.250549 338.665833,754.510315 338.016754,761.092346 
	C337.837585,762.909180 340.115662,762.994019 341.399567,763.546875 
	C351.187134,767.761719 360.999207,771.920593 370.828766,776.036926 
	C386.641266,782.658691 402.288452,789.731934 418.348267,795.690491 
	C434.573914,801.710693 449.452576,795.384094 456.471649,779.628113 
	C466.932587,756.146057 465.302551,732.942627 452.811035,710.560120 
	C441.739471,690.721985 425.003784,676.273132 406.895294,663.249573 
	C387.859222,649.558960 366.673401,639.723450 345.645966,629.641113 
	C334.232086,624.168396 324.975220,616.545288 318.608459,605.358704 
	C307.731781,586.248169 296.969452,567.079468 286.479980,547.752747 
	C281.957886,539.420898 278.073761,530.647888 272.142273,523.185425 
	C267.109619,516.853699 260.310760,514.077271 252.180313,515.960205 
	C243.840317,517.891724 238.859802,523.111572 237.697678,531.730042 
	C237.065308,536.419922 238.889297,540.582764 240.753082,544.644165 
	C252.214478,569.619690 263.831787,594.523682 275.250885,619.518433 
	C279.333405,628.454529 285.783783,634.759583 294.700287,638.691223 
	C298.051270,640.168762 301.524597,641.458557 304.665344,643.304932 
	C311.729584,647.457703 311.466492,656.397583 304.303833,660.226562 
	C301.060150,661.960571 297.917206,661.157043 294.697784,659.897949 
	C276.491791,652.778015 263.659454,640.296021 256.340668,622.099915 
	C255.480530,619.961365 255.293274,617.003662 251.477325,616.324890 
M459.443298,549.653137 
	C471.738312,545.919861 483.514801,546.751648 494.287994,554.165710 
	C496.933075,555.986023 498.450653,554.672729 500.504028,553.544922 
	C516.217102,544.914856 531.619629,545.280762 546.694092,555.228699 
	C555.384277,560.963562 560.846252,569.134827 564.853271,578.519226 
	C565.716064,580.540039 566.673767,583.494751 569.743164,582.176514 
	C572.274536,581.089355 573.064514,578.485718 572.254517,575.792725 
	C571.538086,573.410706 570.711548,571.022156 569.595825,568.806702 
	C564.367310,558.424988 564.610229,557.618774 575.281799,552.369141 
	C576.328430,551.854248 577.392090,551.371826 578.421692,550.825073 
	C589.945557,544.705750 601.084412,537.637939 610.449036,528.794983 
	C621.399902,518.454163 631.302307,506.870636 639.237549,493.785553 
	C648.871887,477.898682 656.749207,461.085999 662.469849,443.589569 
	C668.592712,424.862976 668.157654,405.059723 665.354187,385.684418 
	C659.582886,345.798920 643.000671,311.150177 612.563599,284.091583 
	C563.777039,240.720322 507.721283,226.577377 445.104065,246.438980 
	C391.852356,263.329926 356.129333,299.636444 336.931122,352.064240 
	C330.231384,370.360291 326.707184,389.346222 327.452209,408.839508 
	C328.177826,427.824738 330.307281,446.063232 339.059509,464.081207 
	C353.634583,494.086456 371.835236,520.397644 398.683197,540.360596 
	C406.175201,545.931335 414.520782,550.175964 422.614502,554.804016 
	C428.088135,557.933838 428.889435,561.286194 426.007446,566.738098 
	C424.920624,568.794067 423.707428,570.853333 423.070801,573.060730 
	C422.124115,576.343201 420.490967,580.674011 424.777924,582.217163 
	C428.591339,583.589844 429.261688,579.053894 430.412384,576.560913 
	C436.280487,563.848145 445.428833,554.724365 459.443298,549.653137 
M535.617798,670.101501 
	C525.354370,682.478455 518.071167,696.022949 518.101624,712.889404 
	C520.883667,712.575256 520.961304,710.746765 521.478699,709.518738 
	C527.808411,694.494324 537.767029,682.101746 549.308655,670.840515 
	C571.659485,649.032593 598.011292,633.213257 626.133484,620.247925 
	C653.940063,607.428284 654.564575,607.165527 669.307678,580.128479 
	C680.550964,559.509583 691.670593,538.818909 703.242004,518.384949 
	C709.977356,506.490936 720.396118,499.733459 734.284058,498.413239 
	C737.199707,498.136047 740.239441,499.252289 743.038940,497.885864 
	C743.859009,495.575867 742.601868,493.846222 741.738708,492.122162 
	C733.987610,476.638916 726.417664,461.057434 718.292603,445.771667 
	C713.230347,436.247925 712.636963,426.396637 714.356018,416.192261 
	C715.716309,408.118225 712.404663,399.384521 705.694397,394.757874 
	C697.384766,389.028473 686.993835,392.863708 685.309448,402.071228 
	C683.934326,409.588257 685.127197,416.592743 688.405579,423.350647 
	C690.658936,427.995605 692.947021,432.624451 695.278870,437.230469 
	C703.480164,453.430054 711.720886,469.609650 719.907593,485.816559 
	C720.989685,487.958710 722.843201,490.158722 718.835083,491.711578 
	C705.623840,496.829956 697.498230,507.088745 691.161682,519.254333 
	C682.390442,536.094543 673.347229,552.792969 664.455444,569.570679 
	C663.663391,571.065247 662.953430,572.487000 661.270508,573.226501 
	C640.070312,582.542664 621.090637,595.465393 602.815796,609.483765 
	C578.998352,627.753723 555.862915,646.800232 535.617798,670.101501 
M411.989655,644.477661 
	C439.335022,662.360718 462.842377,683.706543 475.702454,716.381653 
	C476.326111,707.551514 475.732910,700.453369 473.019714,693.522339 
	C468.059174,680.850586 459.923706,670.391174 450.540588,660.797424 
	C430.562469,640.370850 408.483795,622.363831 385.610504,605.349548 
	C369.302032,593.218506 352.610626,581.570068 333.689636,573.677551 
	C331.411499,572.727295 330.505707,570.930847 329.496338,569.014099 
	C321.501190,553.831177 313.281250,538.762268 305.542511,523.450012 
	C298.608276,509.729584 290.094543,497.717957 275.307281,491.570862 
	C272.581604,490.437805 273.103638,488.648621 274.042480,486.709564 
	C277.090424,480.414551 280.107422,474.103302 283.253082,467.857086 
	C290.820129,452.831390 298.552277,437.887939 306.014313,422.810608 
	C309.260162,416.252228 310.492798,409.273254 308.590240,401.977386 
	C306.539520,394.113312 299.379242,390.098938 292.063019,392.762604 
	C283.697052,395.808411 277.889648,406.244446 279.831299,414.950897 
	C282.238983,425.747009 281.267670,436.055756 276.142395,445.992462 
	C268.353943,461.092499 260.739532,476.282471 253.096985,491.457275 
	C252.172577,493.292786 250.475281,494.995300 251.418686,497.338867 
	C252.882080,498.280609 254.405258,498.047424 255.888153,497.998322 
	C261.827179,497.801605 267.393188,499.125946 272.785370,501.636627 
	C282.841736,506.318878 289.062408,514.512634 294.130768,523.965210 
	C306.802917,547.598816 319.598999,571.163940 333.051422,594.369690 
	C337.913727,602.757446 344.672455,608.697266 353.362244,612.884460 
	C373.159332,622.423828 393.370239,631.221863 411.989655,644.477661 
M532.064941,566.258118 
	C521.729980,562.539856 512.115662,563.847900 503.263153,570.404907 
	C496.734894,575.240417 496.739563,575.246704 490.425995,570.328552 
	C481.369415,563.273743 468.686371,562.057495 459.508667,567.363708 
	C442.954224,576.934937 440.418884,597.957764 454.619415,612.575378 
	C467.593903,625.930969 484.030365,635.357056 496.640991,649.439941 
	C500.528564,645.877808 503.907715,642.704712 507.369263,639.624146 
	C517.689331,630.439880 529.304199,622.762878 539.060242,612.947632 
	C550.860535,601.075806 555.152527,578.032715 532.064941,566.258118 
M523.837158,837.767029 
	C521.904602,836.849243 520.291504,835.109314 517.779907,834.951233 
	C518.053528,837.194763 519.066528,838.557312 520.127808,839.806213 
	C530.420044,851.919067 543.823181,858.063843 559.428406,858.618652 
	C579.968262,859.348816 599.000732,852.300110 617.998291,845.625366 
	C626.939636,842.483826 635.729797,838.914062 644.644043,835.692017 
	C646.483459,835.027161 649.537842,833.762390 649.364807,837.480164 
	C649.205872,840.892334 650.826355,844.896423 647.132080,847.686829 
	C646.209534,848.383606 645.831360,849.771301 646.676086,850.854126 
	C647.717407,852.188965 649.039734,851.686523 650.263916,850.997559 
	C652.155151,849.932983 654.147400,848.417480 656.299194,849.027832 
	C663.124207,850.963684 667.995605,848.650391 671.550110,842.809326 
	C672.314026,841.554016 673.654602,841.382019 674.953186,840.998230 
	C680.432495,839.378906 686.138184,838.639343 691.273376,835.677490 
	C694.174194,834.004333 695.193604,831.647644 695.612671,828.914429 
	C696.010315,826.321045 694.016357,824.934509 691.994141,823.483398 
	C689.341125,821.579529 686.170044,821.470032 683.327332,820.540405 
	C683.430969,818.500122 684.930786,818.144470 686.025757,817.591858 
	C688.728760,816.227417 688.867371,814.604492 687.587463,811.940125 
	C685.765747,808.147827 683.493713,809.079224 680.711182,810.439453 
	C656.042847,822.498901 630.761169,833.100525 604.798889,842.047546 
	C599.619873,843.832275 593.842102,844.371826 589.137268,846.943298 
	C577.476196,853.316772 565.184509,851.915649 553.061462,850.597595 
	C542.470093,849.445984 533.441223,843.571716 523.837158,837.767029 
M518.205750,798.222534 
	C528.547058,816.253479 550.475159,825.446411 570.821899,821.337830 
	C583.345947,818.808899 595.085693,814.282532 606.908691,809.842529 
	C617.344116,805.923584 627.631348,801.611328 638.030212,797.592468 
	C640.723450,796.551636 644.461365,794.181763 646.292664,797.179077 
	C650.123840,803.449646 654.527344,801.539734 659.601624,799.793213 
	C666.686096,797.354858 668.217041,795.104980 666.812622,787.853760 
	C666.692749,787.234741 666.553894,786.409607 666.848206,785.954834 
	C668.506042,783.393127 667.184692,781.339661 665.547180,779.696350 
	C663.700623,777.843201 661.765930,779.668396 660.059204,780.393005 
	C644.732971,786.899170 629.526062,793.692627 614.124329,800.012329 
	C600.587952,805.566772 587.233582,811.647095 572.792175,814.774170 
	C549.009460,819.924133 528.018860,808.543884 519.803101,785.772339 
	C519.202881,784.108643 519.105591,782.106323 516.806702,781.570190 
	C514.481018,782.805664 514.207642,784.819885 514.624207,787.092651 
	C515.286682,790.707703 516.213928,794.243530 518.205750,798.222534 
M407.326508,855.114075 
	C408.949890,855.472107 410.563965,855.880859 412.198059,856.180603 
	C433.722534,860.128479 454.034241,858.679260 470.997681,842.742859 
	C473.287048,840.592102 476.148560,838.697510 476.450653,834.536133 
	C471.337311,836.177979 467.580261,839.280457 463.382599,841.513000 
	C453.028534,847.019958 442.676270,851.980835 430.385712,851.521118 
	C420.894867,851.166138 412.031799,850.168823 402.836060,846.558105 
	C388.025299,840.742676 372.713013,836.040527 357.927094,830.056641 
	C342.657715,823.876953 327.370819,817.679932 312.737000,810.038696 
	C310.940399,809.100586 309.266388,808.132568 307.568634,810.521729 
	C305.343109,813.653625 305.473816,815.669312 309.250488,817.441284 
	C321.613922,823.242432 334.149994,828.630920 346.748352,833.896118 
	C366.273834,842.056458 386.105682,849.310242 407.326508,855.114075 
M361.994568,799.402771 
	C375.275940,804.745605 388.514740,810.197693 401.851440,815.398621 
	C413.734863,820.032959 425.950409,823.271301 438.881897,821.735229 
	C457.844971,819.482544 474.606689,809.197571 479.592621,788.913330 
	C480.387878,785.678040 480.580963,782.806335 477.384644,780.793762 
	C475.006592,781.919006 474.862061,784.062866 474.206299,785.891296 
	C467.793152,803.772705 452.809265,817.011108 426.869568,815.485413 
	C413.929596,814.724304 402.458618,809.125610 390.800323,804.343445 
	C371.550140,796.447205 352.477295,788.118225 333.342255,779.942200 
	C330.907684,778.901978 328.650177,777.910767 327.157074,781.274475 
	C325.609558,784.760742 328.524323,785.201233 330.470215,786.139099 
	C340.520355,790.983032 350.876770,795.109497 361.994568,799.402771 
M552.733459,860.427551 
	C550.742188,860.368164 548.744812,860.179504 546.760803,860.273682 
	C540.889771,860.552307 536.188477,859.408752 531.897583,854.349365 
	C528.554138,850.406921 522.874146,848.446106 517.608582,845.222656 
	C518.034058,848.600891 519.622253,850.374146 519.369812,852.961304 
	C518.783386,858.970215 521.992004,863.099182 527.870605,864.874878 
	C528.867615,865.176086 529.635620,865.639832 530.285278,866.471375 
	C537.660156,875.910583 551.125427,880.139648 562.318359,876.571716 
	C563.609619,876.160156 564.900940,875.712280 565.335388,874.255981 
	C567.086426,868.386047 564.409302,863.857788 558.282654,862.174805 
	C556.686951,861.736389 555.131714,861.150391 552.733459,860.427551 
M326.815704,261.631805 
	C326.326385,264.124786 326.838318,266.535400 327.284576,268.980591 
	C327.543304,270.398102 326.988129,272.417847 329.165955,272.317841 
	C331.476562,272.211761 330.620270,270.286255 330.526550,268.858795 
	C330.278625,265.084106 331.766144,262.994049 335.641052,261.607941 
	C339.768188,260.131622 343.511353,257.441956 347.211426,254.966980 
	C349.259460,253.597092 349.477814,251.443253 346.890900,250.321716 
	C340.227509,247.432861 335.190857,243.091446 332.066833,236.351242 
	C330.587463,233.159485 327.653870,233.402039 326.259430,236.714935 
	C324.038452,241.991486 320.549530,245.958420 315.677246,248.864120 
	C314.622894,249.492905 313.288361,250.228210 313.867004,252.709930 
	C318.647369,254.045517 324.167480,255.312347 326.815704,261.631805 
M484.766937,193.712631 
	C488.417755,194.672562 490.829590,196.684494 491.632874,200.644455 
	C492.373535,204.295731 495.071564,204.620438 498.128693,202.430878 
	C503.572144,198.532257 506.145599,192.763824 509.488068,186.890259 
	C502.687958,183.276566 500.706848,176.042480 496.546692,169.008850 
	C494.144653,176.049805 490.905975,181.202850 487.780212,186.449753 
	C486.343719,188.860992 485.053253,189.692032 482.541016,189.046799 
	C481.950562,191.216904 482.204468,192.667709 484.766937,193.712631 
M678.658936,248.864059 
	C673.738831,246.085373 670.020874,242.203201 667.722839,237.002106 
	C667.089905,235.569458 666.143127,234.399765 664.445435,234.318008 
	C662.473083,234.223022 662.037903,235.898758 661.564575,237.251038 
	C660.110596,241.405075 658.789185,245.605499 657.530151,249.440964 
	C663.487549,255.632507 670.200195,257.557709 678.072083,254.849228 
	C681.866272,253.543762 682.203918,252.061630 678.658936,248.864059 
M784.549194,361.766235 
	C780.000000,365.694061 779.209656,369.218506 782.071289,372.815887 
	C784.350830,375.681396 788.686218,376.200134 791.932434,374.078522 
	C794.941650,372.111816 795.453613,369.168579 794.461304,366.187439 
	C793.018188,361.852020 789.521362,360.720581 784.549194,361.766235 
M213.846039,364.801392 
	C211.939713,361.694763 209.093887,360.717072 205.698639,361.533173 
	C202.578568,362.283173 201.037277,364.752167 200.580444,367.669403 
	C200.124496,370.580994 201.870987,372.736420 204.075211,374.402374 
	C206.305450,376.087982 208.767929,376.157349 211.034103,374.557434 
	C214.193619,372.326782 215.530746,369.318054 213.846039,364.801392 
M380.544647,210.891983 
	C377.502625,204.072327 371.809723,202.250839 368.109192,206.994095 
	C366.276642,209.343002 365.543365,211.974655 367.324768,214.812134 
	C369.068329,217.589386 371.475128,219.211044 374.781677,218.641800 
	C378.586670,217.986755 380.237549,215.268661 380.544647,210.891983 
M621.104736,204.476746 
	C615.503967,205.010849 612.968750,207.445480 613.298401,211.973572 
	C613.599609,216.111328 616.960876,219.038605 621.013245,218.678741 
	C624.297546,218.387100 626.115234,216.386093 626.744141,213.349075 
	C627.623108,209.104630 625.665710,206.317978 621.104736,204.476746 
z"/>
<path fill="#ffffff" opacity="1.000000" stroke="none" 
	d="
M117.484329,456.568481 
	C120.225632,440.665436 120.225632,440.664001 135.638901,440.668030 
	C148.954178,440.671509 162.269516,440.655151 175.584686,440.694092 
	C182.334686,440.713837 182.633469,441.183655 179.359711,446.840271 
	C175.026749,454.327057 170.490860,461.697937 166.248291,469.234589 
	C164.771576,471.857880 162.957535,473.159363 159.937500,473.149750 
	C146.289886,473.106323 132.641724,473.113098 118.994362,473.196747 
	C115.336533,473.219147 114.273064,471.592224 115.050468,468.202728 
	C115.904289,464.479950 116.621078,460.725708 117.484329,456.568481 
z"/>
<path fill="#ffffff" opacity="1.000000" stroke="none" 
	d="
M818.714233,453.226624 
	C816.595337,449.462616 814.657471,446.016693 812.929749,442.944336 
	C814.172180,440.312012 816.013245,440.706909 817.596191,440.703339 
	C834.400757,440.665619 851.206177,440.756226 868.009460,440.606720 
	C871.484070,440.575836 873.128967,441.933655 873.995422,445.137848 
	C876.034607,452.679077 877.798706,460.273285 879.149231,467.967712 
	C879.770142,471.505157 878.698425,473.230347 874.776794,473.181793 
	C861.468262,473.017059 848.157104,473.018372 834.847107,473.042694 
	C831.680542,473.048492 829.552979,471.810120 827.997253,469.030701 
	C825.073425,463.807007 821.940979,458.700165 818.714233,453.226624 
z"/>
<path fill="#ffffff" opacity="1.000000" stroke="none" 
	d="
M628.587158,366.631989 
	C640.713745,410.947388 634.208679,451.788055 607.588196,488.914093 
	C589.865540,513.630737 565.562439,529.336365 536.711609,538.311096 
	C534.104797,539.121948 531.574829,539.023132 528.854431,538.689758 
	C519.266052,537.514648 509.837891,538.223328 501.220184,543.089661 
	C498.276581,544.751953 495.865417,544.750061 492.862671,543.204163 
	C483.527313,538.398254 473.522156,537.171753 463.254608,538.996155 
	C459.650238,539.636597 456.786346,538.263000 453.653168,537.218201 
	C442.698730,533.565369 432.247803,528.876465 422.549713,522.565796 
	C389.669159,501.169617 369.107880,470.958527 362.072906,432.703003 
	C353.308044,385.040405 365.580139,342.875580 400.282074,308.208801 
	C421.695679,286.816864 448.221405,275.074158 477.791901,271.056335 
	C507.511780,267.018250 536.319641,271.516754 562.948303,286.007324 
	C595.630127,303.791901 617.782898,330.390686 628.587158,366.631989 
M562.795349,437.232361 
	C564.686523,419.104919 556.567688,406.899719 540.274231,399.861664 
	C540.914429,396.535828 543.389343,395.131317 545.172852,393.246613 
	C557.929260,379.766296 556.608154,360.519318 542.275757,348.805542 
	C535.743408,343.466644 528.339905,341.099976 520.083313,341.350861 
	C516.018982,341.474335 514.304321,340.081299 514.590271,335.904694 
	C514.851440,332.090546 514.530640,328.240082 514.671082,324.413147 
	C514.827209,320.160400 513.877869,317.215820 508.716278,317.350708 
	C503.435394,317.488678 502.321411,318.512299 502.255524,324.329834 
	C502.240417,325.662598 502.256317,326.995728 502.255310,328.328674 
	C502.244598,342.558167 502.252441,342.474365 487.886902,341.104675 
	C484.233887,340.756378 482.449554,339.483826 482.625122,335.577118 
	C482.834320,330.922211 482.780670,326.243591 482.586548,321.585846 
	C482.403778,317.199188 478.867706,317.669830 475.934906,317.417969 
	C472.964996,317.162903 471.065033,318.172455 471.063324,321.503052 
	C471.061035,326.000061 470.806213,330.507812 471.040619,334.991058 
	C471.283356,339.633209 469.702637,341.566559 464.771057,341.439026 
	C453.615021,341.150574 442.445496,341.432281 431.283478,341.303772 
	C427.095581,341.255585 424.985291,342.835724 425.235687,347.162811 
	C425.322144,348.657196 425.256104,350.160706 425.251434,351.660034 
	C425.239136,355.590973 427.328705,357.417084 431.126160,357.519989 
	C435.621429,357.641815 440.104828,357.698364 444.593811,357.138824 
	C446.593475,356.889526 449.334839,357.110962 448.246155,360.106323 
	C446.746704,364.231903 447.341003,368.347473 447.327393,372.452820 
	C447.240692,398.611664 447.288818,424.770966 447.281311,450.930115 
	C447.279480,457.300079 446.975281,457.651245 440.588684,457.980927 
	C437.096191,458.161194 433.593414,458.134613 430.095978,458.228455 
	C428.371216,458.274719 426.772522,458.651276 425.811920,460.295898 
	C422.044495,466.746033 425.873627,474.191223 433.241058,474.653076 
	C435.398651,474.788391 437.571899,474.656250 439.737488,474.684570 
	C448.221100,474.795471 456.671844,473.657074 465.199554,474.482727 
	C469.156952,474.865906 470.576477,476.349121 470.258453,480.034546 
	C469.544861,488.303680 471.188812,496.473938 471.285950,504.708008 
	C471.309296,506.685669 472.400269,507.767761 474.097595,508.382477 
	C475.465668,508.877960 476.799255,508.748047 477.672119,507.469879 
	C478.805939,505.809570 477.285858,504.723450 476.631805,503.456726 
	C476.047821,502.325806 474.673981,501.550781 475.028748,499.992157 
	C482.789337,496.783722 482.789459,496.783722 482.889252,487.461792 
	C482.896393,486.795349 482.901550,486.128876 482.906097,485.462433 
	C482.984131,474.020874 483.799377,473.287079 495.266815,474.344238 
	C495.764465,474.390076 496.265533,474.529724 496.756470,474.497192 
	C500.445679,474.252716 501.851715,476.346161 501.954865,479.646515 
	C502.105865,484.474792 502.272766,489.306763 502.233978,494.135590 
	C502.194092,499.102600 505.772491,498.499329 508.865967,498.665375 
	C512.157227,498.842010 514.921814,498.376801 514.869690,494.029602 
	C514.815857,489.534515 514.881287,485.031677 515.094543,480.541718 
	C515.270020,476.846924 517.100525,474.489929 521.117920,474.891876 
	C526.458008,475.426147 531.383667,473.922852 536.164001,471.944092 
	C551.317505,465.671661 561.032593,455.034607 562.795349,437.232361 
M414.516479,366.509125 
	C412.023071,366.434387 409.528625,366.383484 407.036469,366.279297 
	C403.340149,366.124725 398.970367,366.268219 398.822662,361.225830 
	C398.663422,355.789825 403.379395,356.910339 406.618164,356.871918 
	C410.230347,356.829102 411.851624,355.341797 411.813904,351.815002 
	C411.776489,348.316345 411.746857,344.817078 411.769135,341.318420 
	C411.823120,332.839569 415.872864,328.762909 424.318756,328.710297 
	C433.483612,328.653198 442.648773,328.613373 451.813751,328.620483 
	C456.505554,328.624146 458.956421,326.567169 458.823090,321.673370 
	C458.741547,318.680206 458.733948,315.659882 459.035767,312.686554 
	C459.716003,305.985565 462.554108,303.070099 469.341980,303.026855 
	C476.585052,302.980652 484.000458,301.341614 491.050110,304.602509 
	C491.860809,304.977539 493.165588,304.977692 493.958954,304.583466 
	C498.855713,302.150177 504.072205,302.845886 509.197449,302.884186 
	C525.690430,303.007385 526.999268,304.328888 526.689880,321.063812 
	C526.623230,324.667938 527.969666,326.667084 531.341492,327.671417 
	C534.841553,328.713867 538.281189,329.959900 541.743713,331.127655 
	C548.599976,333.439972 555.159973,336.927551 562.789673,336.072479 
	C564.926086,335.833038 567.123047,335.984528 569.281250,336.125336 
	C572.018066,336.303925 575.165100,336.808380 575.596558,339.903412 
	C576.053650,343.182037 573.404419,344.793518 570.379639,345.506195 
	C567.363037,346.216949 564.848206,347.565002 563.879517,350.452606 
	C572.050415,356.765045 581.166138,358.821381 591.069092,358.108978 
	C592.866089,357.979675 594.709412,358.432129 596.526306,358.656616 
	C598.622131,358.915466 599.872437,360.094269 600.026917,362.223724 
	C600.190491,364.478821 599.242493,366.197540 597.021362,366.813965 
	C595.605042,367.207001 594.069336,367.288849 592.585693,367.299011 
	C585.920410,367.344666 579.252991,367.402405 572.589844,367.273682 
	C569.417664,367.212433 567.874634,368.338135 568.202026,371.643463 
	C568.332947,372.965271 568.341248,374.313019 568.257202,375.639587 
	C568.029480,379.233582 569.622437,380.787628 573.254211,380.756561 
	C584.918152,380.656738 596.584961,380.807495 608.247253,380.632721 
	C613.787109,380.549744 615.873291,377.687927 614.132935,372.422699 
	C609.033142,356.993622 602.656372,342.062378 591.892151,329.694611 
	C563.493530,297.065643 526.927429,282.343658 484.452423,286.834961 
	C437.939087,291.753296 402.971588,315.223419 384.268890,359.628510 
	C374.644104,382.480316 372.307190,406.121155 377.341064,430.469910 
	C378.386230,435.525421 380.823486,438.690369 386.310455,438.649078 
	C399.968536,438.546265 413.630707,439.066864 427.284363,438.078308 
	C431.666168,437.761078 432.931488,435.465607 432.980103,431.564575 
	C433.033539,427.274231 430.159698,427.362915 427.200836,427.355133 
	C418.369202,427.331940 409.537231,427.317780 400.706299,427.220062 
	C398.910248,427.200226 396.814240,427.221771 396.159332,424.988464 
	C395.624023,423.162872 395.742645,420.972931 397.309082,419.896454 
	C400.098511,417.979492 403.016754,415.523346 406.713318,416.354340 
	C412.315247,417.613586 418.037628,416.487183 423.626617,417.615723 
	C425.853638,418.065399 427.824585,416.995087 429.779541,415.976074 
	C432.941132,414.328064 433.067902,411.541565 432.530701,408.657623 
	C431.978394,405.692352 429.374756,406.130707 427.294830,406.107849 
	C413.303864,405.954071 399.301636,406.497070 385.327240,405.388458 
	C383.860687,405.272095 382.150208,405.473022 381.387329,403.822693 
	C380.513794,401.932831 381.375488,400.164764 382.491913,398.727509 
	C383.269409,397.726593 384.457947,396.892059 385.635315,396.378693 
	C395.837646,391.930176 406.364807,389.589478 417.569550,391.515869 
	C420.832458,392.076874 424.179443,392.601624 427.458618,392.460999 
	C429.762054,392.362213 432.761536,391.983185 432.743561,388.421021 
	C432.723358,384.418182 429.569336,385.307983 427.269440,385.162109 
	C422.288086,384.846100 417.295837,384.699158 412.307709,384.492310 
	C409.448853,384.373718 407.352020,383.033173 407.065033,380.152466 
	C406.724518,376.734375 409.671356,376.769958 411.896545,376.483490 
	C416.514923,375.888794 421.162384,375.523712 425.789795,374.993744 
	C427.445435,374.804169 429.668304,375.339447 429.817505,371.889771 
	C424.632690,371.289673 419.279236,370.762817 414.516479,366.509125 
M526.356018,499.484650 
	C526.359436,500.317352 526.366089,501.150055 526.365784,501.982758 
	C526.362793,510.442749 524.545715,512.286743 516.147888,512.341064 
	C511.151306,512.373413 505.817871,513.521667 501.240631,512.150146 
	C495.093353,510.308197 489.581696,511.025940 483.573242,512.008667 
	C478.393707,512.855835 472.946503,512.004822 467.618042,512.021545 
	C462.696625,512.037048 460.228271,509.476440 459.829224,504.783997 
	C459.476685,500.638611 459.090179,496.473297 459.146240,492.322571 
	C459.199249,488.397827 457.624451,487.110413 453.775330,487.189667 
	C444.285828,487.385162 434.786255,487.389313 425.296661,487.188446 
	C417.465576,487.022736 412.551483,483.061401 412.311676,475.562622 
	C412.027557,466.678894 409.280334,457.382538 415.651398,448.513519 
	C404.542267,448.207916 394.259186,447.881165 383.205902,448.614197 
	C385.986359,457.808868 390.252533,465.050201 394.755768,472.230988 
	C411.276428,498.574341 435.079712,515.289429 464.949005,522.101013 
	C492.316742,528.342224 519.860779,527.000916 546.350830,516.417236 
	C569.626038,507.118073 588.307617,492.169495 601.328979,470.535431 
	C605.024963,464.394806 604.045898,462.554840 596.999268,462.439148 
	C589.672913,462.318817 582.340027,462.548035 575.015808,462.375183 
	C571.502991,462.292297 569.162415,463.532104 567.055847,466.375183 
	C559.008362,477.236298 548.402771,484.192139 534.989990,486.746368 
	C526.309326,488.399414 526.329102,488.503326 526.350952,497.531158 
	C526.351746,497.864288 526.352905,498.197388 526.356018,499.484650 
M608.470642,433.675751 
	C612.888184,435.582947 615.632324,433.327698 617.185974,429.620117 
	C619.270813,424.644623 617.816772,417.332550 614.850037,415.842590 
	C614.275024,415.553833 613.583435,415.360321 612.944214,415.356445 
	C601.633179,415.288239 590.321777,415.224701 579.010620,415.237518 
	C575.984253,415.240936 575.018555,416.950653 575.455444,419.865173 
	C577.245239,431.806671 577.213623,431.810944 589.606812,431.942963 
	C590.937622,431.957153 592.271973,431.923431 593.598450,432.008148 
	C598.343628,432.311188 603.257812,430.739014 608.470642,433.675751 
M598.498047,404.677002 
	C603.986450,404.638275 609.477295,404.683746 614.962097,404.522430 
	C617.410828,404.450378 618.955688,403.199219 618.959412,400.434387 
	C618.963074,397.703918 617.990662,395.931763 615.082275,395.673126 
	C613.925476,395.570251 612.754578,395.423279 611.602905,395.496826 
	C597.476196,396.398621 583.335144,395.763306 569.202271,395.944244 
	C566.629700,395.977142 564.059509,396.196899 560.910828,396.360382 
	C564.924805,401.831665 569.218262,404.863373 575.542419,404.682465 
	C582.855286,404.473297 590.179565,404.661377 598.498047,404.677002 
M583.597900,453.602753 
	C591.046936,453.299896 598.494995,452.967438 605.945618,452.710876 
	C608.425354,452.625458 610.371826,451.653717 610.451599,449.098511 
	C610.541870,446.201904 607.996948,446.426056 606.070435,446.410950 
	C598.278870,446.349731 590.484741,446.291687 582.695374,446.436035 
	C579.807434,446.489532 575.509766,445.185974 575.503784,450.091461 
	C575.497559,455.192200 579.943176,453.068695 583.597900,453.602753 
z"/>
<path fill="#ffffff" opacity="1.000000" stroke="none" 
	d="
M473.928558,453.852509 
	C472.287140,441.174744 472.984375,428.849304 472.978424,416.540833 
	C472.977081,413.771973 474.455139,412.208862 477.267700,412.110504 
	C491.746277,411.604248 506.289185,410.977570 520.635254,413.119965 
	C531.268982,414.707947 537.546265,426.967560 534.701355,438.590485 
	C532.220886,448.724457 523.230957,456.408569 511.727112,456.829742 
	C500.769745,457.230896 489.751465,457.706818 478.786194,456.432617 
	C476.959320,456.220367 475.065094,456.233246 473.928558,453.852509 
z"/>
<path fill="#ffffff" opacity="1.000000" stroke="none" 
	d="
M516.655884,359.098450 
	C528.785767,366.766205 528.631836,372.600677 526.861389,382.325958 
	C525.291138,390.951904 516.200134,397.979279 506.819794,398.260590 
	C497.347046,398.544678 487.859436,398.293365 478.380920,398.442078 
	C474.762360,398.498840 473.117706,396.822083 473.085419,393.420929 
	C472.981201,382.444763 472.932159,371.467896 472.904877,360.491241 
	C472.899628,358.383423 473.374329,356.078369 475.928894,356.102173 
	C488.335938,356.217834 500.847382,353.994812 513.112183,357.559448 
	C514.220459,357.881592 515.254333,358.459869 516.655884,359.098450 
z"/>
</svg>